HIERARCHY
ROOT ROOT
{
	OFFSET 0.000000 56.020000 -5.659234
	CHANNELS 6 Xposition Yposition Zposition Xrotation Yrotation Zrotation 
	JOINT C_spine0001_bind_JNT
	{
		OFFSET 0.000000 1.618999 0.000000
		CHANNELS 3 Xrotation Yrotation Zrotation
		JOINT C_spine0002_bind_JNT
		{
			OFFSET 0.000000 4.942001 0.000001
			CHANNELS 3 Xrotation Yrotation Zrotation
			JOINT C_spine0003_bind_JNT
			{
				OFFSET 0.000000 4.942001 -0.000000
				CHANNELS 3 Xrotation Yrotation Zrotation
				JOINT C_neck0001_bind_JNT
				{
					OFFSET 0.000000 17.026009 -0.000000
					CHANNELS 3 Xrotation Yrotation Zrotation
					JOINT C_neck0002_bind_JNT
					{
						OFFSET 0.000000 3.249985 0.000000
						CHANNELS 3 Xrotation Yrotation Zrotation
						JOINT C_head_bind_JNT
						{
							OFFSET 0.000000 5.278008 0.000000
							CHANNELS 3 Xrotation Yrotation Zrotation
							End Site
							{
								OFFSET 0.000000 0.000000 0.000000
							}
						}
					}
				}
				JOINT L_clavicle_bind_JNT
				{
					OFFSET 4.590000 12.067001 0.834000
					CHANNELS 3 Xrotation Yrotation Zrotation
					JOINT L_armUpper0001_bind_JNT
					{
						OFFSET 7.812635 0.512001 -3.452945
						CHANNELS 3 Xrotation Yrotation Zrotation
						JOINT L_armLower0001_bind_JNT
						{
							OFFSET 15.265892 -6.552116 -0.058157
							CHANNELS 3 Xrotation Yrotation Zrotation
							JOINT L_hand0001_bind_JNT
							{
								OFFSET 14.747667 -6.369995 5.049225
								CHANNELS 3 Xrotation Yrotation Zrotation
								End Site
								{
									OFFSET 0.000000 0.000000 0.000000
								}
							}
						}
					}
				}
				JOINT R_clavicle_bind_JNT
				{
					OFFSET -4.590000 12.067001 0.834000
					CHANNELS 3 Xrotation Yrotation Zrotation
					JOINT R_armUpper0001_bind_JNT
					{
						OFFSET -7.812635 0.512001 -3.452945
						CHANNELS 3 Xrotation Yrotation Zrotation
						JOINT R_armLower0001_bind_JNT
						{
							OFFSET -15.265890 -6.552124 -0.058160
							CHANNELS 3 Xrotation Yrotation Zrotation
							JOINT R_hand0001_bind_JNT
							{
								OFFSET -14.746784 -6.369629 5.048937
								CHANNELS 3 Xrotation Yrotation Zrotation
								End Site
								{
									OFFSET 0.000000 0.000000 0.000000
								}
							}
						}
					}
				}
			}
		}
	}
	JOINT C_pelvis0001_bind_JNT
	{
		OFFSET -0.000000 0.000000 0.000000
		CHANNELS 3 Xrotation Yrotation Zrotation
		JOINT L_legUpper0001_bind_JNT
		{
			OFFSET 6.599999 -6.027000 0.539000
			CHANNELS 3 Xrotation Yrotation Zrotation
			JOINT L_legLower0001_bind_JNT
			{
				OFFSET -0.140713 -19.187443 0.040261
				CHANNELS 3 Xrotation Yrotation Zrotation
				JOINT L_foot0001_bind_JNT
				{
					OFFSET -0.132215 -18.028637 -1.138370
					CHANNELS 3 Xrotation Yrotation Zrotation
					JOINT L_foot0002_bind_JNT
					{
						OFFSET 0.007014 -4.693133 9.886524
						CHANNELS 3 Xrotation Yrotation Zrotation
						End Site
						{
							OFFSET 0.000000 0.000000 0.000000
						}
					}
				}
			}
		}
		JOINT R_legUpper0001_bind_JNT
		{
			OFFSET -6.599999 -6.027000 0.539000
			CHANNELS 3 Xrotation Yrotation Zrotation
			JOINT R_legLower0001_bind_JNT
			{
				OFFSET 0.140710 -19.187164 0.040550
				CHANNELS 3 Xrotation Yrotation Zrotation
				JOINT R_foot0001_bind_JNT
				{
					OFFSET 0.132215 -18.028633 -1.138362
					CHANNELS 3 Xrotation Yrotation Zrotation
					JOINT R_foot0002_bind_JNT
					{
						OFFSET -0.007014 -4.693128 9.886505
						CHANNELS 3 Xrotation Yrotation Zrotation
						End Site
						{
							OFFSET 0.000000 0.000000 0.000000
						}
					}
				}
			}
		}
	}
}
MOTION
Frames: 12
Frame Time: 0.033333
2.463347 48.372898 95.288345 0.017935 -15.130673 0.006635 -1.631341 18.420296 2.299810 5.848249 0.723440 -4.633403 1.989100 1.240517 -2.286491 12.027032 -0.666485 -2.665704 -8.061300 -4.677096 2.097214 -43.901028 -7.261178 8.000785 -4.597037 12.369933 -4.719594 -3.424544 2.858222 -58.715771 9.006570 5.295490 -1.292516 -16.243618 -21.010170 -25.323807 -4.769747 -13.911961 3.642729 3.437046 -4.685736 56.036861 10.890656 -13.931294 2.274225 -9.705227 27.354723 16.203066 0.772428 18.213802 0.708868 0.854308 -0.200368 -11.234265 7.131098 0.914687 0.510561 -5.417498 -1.492577 6.680151 -2.211636 -0.424874 0.080455 -14.379400 0.073198 -3.772635 53.689194 -1.465057 1.661131 -5.987917 -6.257175 -1.927295 -10.445149 -0.168011 -1.855480 
2.841366 48.591026 96.131844 0.013966 -14.555467 -0.019016 -1.773493 17.348827 1.697685 5.634509 -0.256803 -3.555794 1.959466 0.263126 -1.957922 12.004962 -0.668518 -2.592652 -7.995825 -3.142778 2.020382 -44.083591 -8.262041 8.501232 -5.239877 10.922494 -3.923354 -6.382411 -0.030526 -57.581505 7.955072 5.069980 -2.751313 -16.153671 -20.397434 -23.954811 -4.001894 -14.920061 4.145279 5.388369 -6.611117 55.012894 11.099179 -15.642251 1.924783 -9.060647 26.857456 18.547544 0.549199 17.028313 0.122729 3.073273 -0.147666 -11.208655 5.351575 0.824293 1.071449 -5.076529 -1.363856 6.691247 -2.534128 -0.520499 0.146448 -18.524214 0.777712 -2.977919 51.752281 -1.369610 1.595631 -6.476502 -5.609916 -3.312844 -9.617673 0.105757 -2.200038 
3.182579 48.786919 97.094063 0.022497 -14.774496 0.005779 -1.985307 16.962477 0.894561 6.005854 -1.594101 -2.306130 1.914371 -0.634079 -1.477517 11.974947 -0.462637 -2.442868 -8.149105 -2.314501 1.853577 -44.485798 -8.753325 9.833206 -6.259354 9.388700 -2.918029 -8.450354 -1.935262 -56.339535 6.514747 4.000844 -4.076936 -15.015374 -19.330059 -23.460079 -3.856619 -15.526472 4.296179 7.635156 -9.137501 54.206066 11.743547 -16.825365 1.337218 -9.960855 25.939545 20.526320 0.496738 16.631990 -0.432585 5.422785 -0.311243 -11.055936 3.363074 0.682510 1.254386 -4.791499 -1.312027 6.730062 -3.059098 -0.364709 0.571706 -22.314190 1.162050 -2.101462 47.569118 -1.704289 0.786049 -4.700051 -3.903552 -3.446355 -8.983521 0.415699 -2.777414 
3.421715 48.818718 98.205360 0.026155 -15.101243 -0.018385 -2.128490 16.797840 0.115462 6.328678 -2.714340 -0.936517 2.245026 -1.652359 -1.047877 11.815273 -0.394720 -2.498968 -8.217590 -0.824556 1.855473 -45.172001 -8.866846 10.182316 -7.262695 8.420271 -2.141804 -10.278499 -4.212851 -54.107925 5.409568 3.078316 -5.675135 -14.745865 -18.709505 -23.683470 -3.530018 -15.895082 4.685163 9.123561 -11.970065 53.144634 11.941654 -17.159182 0.862281 -10.086401 25.055138 22.593307 0.441701 16.432177 -0.562821 7.500206 -0.583873 -11.165104 1.877596 1.185909 1.303525 -4.654860 -1.647583 6.991598 -3.236571 -0.340987 0.482073 -25.218088 1.308511 -2.149292 42.254047 -1.347005 0.812099 -3.642550 -1.511257 -1.536730 -7.141670 0.906066 -2.436867 
3.501951 48.748917 99.551018 0.022537 -15.740817 -0.012295 -2.063406 16.753092 -0.666586 6.543443 -3.743012 0.335018 2.372615 -2.654424 -0.443484 11.627168 -0.234700 -2.645148 -8.087427 0.464269 1.575745 -45.785469 -9.555025 10.814970 -8.055866 7.568516 -1.083390 -11.461608 -5.896790 -52.757229 4.292547 2.001358 -6.719018 -13.650441 -18.100290 -23.900402 -3.803434 -16.111887 4.546445 10.761773 -14.356931 51.965057 12.324843 -17.251268 0.691008 -10.025819 24.113329 23.643175 0.535081 16.729111 -0.838911 9.761287 -1.118912 -10.808335 0.556002 1.651341 0.914573 -5.126467 -1.700180 7.021671 -4.006457 -0.286619 0.669336 -26.749472 1.207475 -1.583617 33.762413 -2.132684 0.194413 -1.602372 1.115266 1.150522 -4.625085 0.964837 -0.976047 
3.432373 48.646629 101.008957 0.030871 -15.862312 -0.013719 -2.325501 16.105030 -1.173393 6.879516 -4.566734 1.538135 2.265782 -3.209967 -0.118103 11.888453 -0.236478 -2.458292 -8.348789 1.350321 1.312510 -46.274342 -9.450054 10.885846 -8.516573 6.521317 -0.270582 -12.115769 -6.868024 -51.530869 4.724863 0.962345 -7.241772 -13.190403 -17.561501 -23.884562 -3.764974 -16.634077 4.559560 12.133014 -16.271458 51.374847 12.474903 -17.420996 0.545586 -10.479408 24.263353 24.458889 0.722906 16.168936 -1.007274 12.094523 -1.773663 -10.492709 -0.686181 2.798907 0.577354 -5.909025 -1.740289 7.097925 -4.121650 -0.500359 0.464581 -26.991409 1.294810 -0.754111 24.149479 -3.289333 0.452936 -0.087689 2.686342 4.453214 -2.173957 0.876867 0.225582 
3.325250 48.511395 102.337173 0.034490 -16.449215 -0.012867 -2.204052 15.659820 -1.478114 6.740549 -5.120971 2.442094 2.430690 -3.813562 0.138497 11.665796 -0.086243 -2.366783 -8.315452 1.680166 1.252148 -46.152515 -9.466785 11.337475 -9.216854 5.402263 0.533222 -12.257163 -6.801612 -50.165264 5.504911 -0.301990 -7.980098 -11.781968 -17.013474 -24.486853 -3.896646 -16.694979 4.844071 12.769320 -18.038277 50.712975 12.818695 -17.366262 0.710128 -11.124196 24.320282 25.059650 0.641725 16.054977 -1.429758 14.032062 -2.212146 -9.659641 -1.335233 3.759811 0.082801 -6.641340 -2.213604 7.109310 -4.443135 -0.399972 0.528303 -25.856663 0.697972 0.529639 15.332650 -4.644756 0.188372 1.265166 4.022829 7.848246 -0.682801 0.574999 0.845790 
3.319618 48.398163 103.673836 0.042952 -17.152935 -0.014167 -2.231311 15.489016 -1.654537 6.737649 -5.585875 3.400735 2.505396 -4.304056 0.424012 11.613717 0.050484 -2.040748 -8.291096 1.932111 0.959445 -46.047218 -9.588971 11.194010 -9.699481 4.242994 0.903181 -12.270177 -6.527323 -49.129845 6.384921 -1.248736 -8.301167 -10.638108 -16.792337 -25.064985 -3.833790 -17.138723 4.667681 13.405128 -18.827402 50.660645 12.483379 -17.198128 0.933443 -11.435421 25.075272 25.415352 0.552667 15.924981 -1.587153 16.292706 -2.432856 -9.541777 -2.051218 5.048142 -0.106394 -7.212718 -2.901681 6.899920 -5.144113 -0.571294 0.672154 -24.408194 0.439465 1.940199 7.756253 -6.532980 -0.046059 3.642762 5.296004 10.114722 -0.603239 0.426055 1.028311 
3.280578 48.311131 104.889229 0.027712 -17.859844 -0.004885 -2.137956 15.557158 -1.665466 6.441312 -6.139212 4.018280 2.797057 -4.881607 0.662954 11.157756 0.127308 -1.955805 -8.019528 2.222198 0.924470 -45.833561 -9.457608 11.277306 -10.220968 3.472035 0.863834 -11.901548 -5.764681 -47.895256 7.766517 -2.645827 -8.482421 -9.833348 -16.703712 -25.947731 -3.597574 -17.192671 4.932793 13.403490 -19.266630 50.419399 12.033251 -16.896097 0.865682 -11.246619 25.237104 25.601641 0.414341 16.143492 -1.519352 17.801788 -2.691723 -9.477438 -2.097604 5.578780 -0.050964 -7.074657 -3.270438 6.541546 -6.137596 -0.178025 0.680986 -23.021648 -0.132911 3.192293 2.726923 -8.100207 -0.865042 5.240218 6.409277 11.346435 -0.973987 0.232523 1.340148 
3.346815 48.198368 106.254318 0.044229 -18.663227 -0.009217 -2.079654 15.907866 -1.711665 6.255660 -6.626411 4.747049 2.777122 -5.330127 0.759997 11.017840 0.212877 -1.651430 -7.985024 2.442349 0.750019 -45.537968 -9.510904 11.088057 -10.480924 2.832744 0.857586 -11.520095 -5.280010 -47.634892 9.085369 -3.630426 -8.171253 -8.811301 -16.806870 -26.261377 -3.374345 -17.732227 5.162857 13.613079 -19.377502 50.393444 11.675370 -16.469210 0.814220 -11.787522 25.545357 26.021631 0.502749 16.548384 -1.570007 19.873844 -3.361367 -9.606250 -3.085737 6.819664 -0.020033 -6.447632 -3.597565 6.561668 -7.713995 -0.250293 0.714425 -21.942589 -0.531555 4.480914 -0.810956 -8.862902 -1.593603 6.819928 7.201190 11.751963 -1.078352 0.168997 1.579478 
3.507682 48.069649 107.595528 0.026139 -19.134151 -0.004882 -2.142975 15.990890 -1.806849 6.295486 -7.002246 5.436609 2.867705 -5.886763 1.114976 10.786334 0.305740 -1.669755 -7.894052 2.389952 0.814754 -45.632011 -9.042917 11.088296 -10.822553 2.318241 0.606690 -10.798783 -4.357150 -47.022015 10.320169 -5.152347 -8.242194 -8.153918 -16.741657 -26.734715 -3.581310 -17.677227 5.132176 13.922967 -19.625212 50.453571 11.315446 -16.233978 0.863992 -11.588450 25.866110 26.139040 0.367963 16.520048 -1.710429 21.741867 -3.635149 -9.723825 -3.183502 7.804459 -0.215832 -6.411184 -4.300242 6.488194 -9.420282 0.186286 0.772661 -20.337000 -0.716580 5.641377 -3.232581 -8.809985 -2.140521 7.853889 7.850663 11.671176 -0.926823 -0.011879 1.679258 
3.586016 48.011417 108.918800 0.026950 -19.472652 -0.002239 -1.938094 16.035318 -2.160914 5.994591 -7.335616 6.131056 2.667070 -6.022670 1.467317 11.010530 0.289163 -1.185872 -8.062288 2.235625 0.717170 -45.498463 -8.785584 10.556093 -10.696976 2.022769 0.639463 -10.119362 -3.985115 -47.685215 11.244562 -6.226162 -7.602769 -7.306064 -16.758362 -27.300453 -3.193858 -18.296329 5.613008 13.548936 -19.631044 50.076797 10.981256 -15.871475 0.758489 -11.869495 25.744806 26.386259 0.590768 16.519913 -1.883820 23.408657 -3.808570 -9.741976 -4.073446 8.736176 -0.305149 -5.399369 -4.312228 6.262932 -11.433823 -0.018712 0.836407 -19.207146 -1.032352 6.664676 -4.823054 -8.500102 -2.338209 9.588709 8.780107 10.361132 -0.727000 0.329833 1.452564 
